<svg xmlns="http://www.w3.org/2000/svg" xmlns:xlink="http://www.w3.org/1999/xlink" viewBox="0 0 32 32">
  <defs>
    <style>
      .a {
        fill: #fccb05;
      }

      .b {
        fill: #ffe780;
      }

      .c {
        fill: #e71a41;
      }

      .d {
        fill: #ef6628;
      }

      .e {
        fill: #624c9d;
      }

      .f {
        fill: #9ac52e;
      }
    </style>
    <symbol id="a" data-name="star" viewBox="0 0 2.6 2.6">
      <polygon class="a" points="2.6 1.8 1.6 1.9 0.8 2.6 0.7 1.6 0 0.8 1 0.7 1.8 0 1.9 1 2.6 1.8"/>
    </symbol>
  </defs>
  <title>glyph-x</title>
  <g>
    <polygon class="b" points="27.53 3.9 2.93 23.1 9.23 29.3 27.53 3.9"/>
    <g>
      <path class="c" d="M6.53,29c-1.6-1-4.8-3.5-3.9-6.1A10.76,10.76,0,0,1,5,19.7c.6-.5,3.4-2.6,4.5-2.6,0,0-.7,2.4-.8,2.8a9.34,9.34,0,0,0-.2,2.4,6.79,6.79,0,0,0,1.1,3.9c.3.5,1.3,1.4,1.3,1.9s-.8,1.3-1.1,1.5a1.83,1.83,0,0,1-1.6.3A9.66,9.66,0,0,1,6.53,29Z"/>
      <path class="d" d="M14.43,21.5c.5,1.7-.2,2.7-1.5,4-.3.3-.8,1-1.3,1s-1-1-1.3-1.4c-1.4-2.2-.7-6.6.5-8.3a10.92,10.92,0,0,1,2.3-2.8c.2-.2,1.3-1.3,1.9-1.4,0,0-.3.9-.5,1.3A21.57,21.57,0,0,0,14.43,21.5Z"/>
      <path class="e" d="M24.53,7.3a3.72,3.72,0,0,1,.7-2.4c.5-.5,1.8-1.5,2.4-1.4,1.4.5-2.4,5.2-3,5.7A4.08,4.08,0,0,1,24.53,7.3Z"/>
      <path class="a" d="M15,15.2a9.15,9.15,0,0,1,1.9-4c.6-.8,2.9-2.8,3.4-2.7a49.69,49.69,0,0,0-1.1,5.5c-.1,1.8,0,3.2-1.1,4.9a10.59,10.59,0,0,1-1.9,2.3c-.6.5-.7.7-1,.1C14.43,19.4,14.83,16.5,15,15.2Z"/>
      <path class="f" d="M20.93,8.5a7.19,7.19,0,0,1,2.2-2.4c.5-.3.9-.6,1-.5s-.2.8-.3,1.4c-.2,2,.5,3.6-.7,5.6a10.67,10.67,0,0,1-2.2,2.5c-.9.8-1,.7-1-.5,0-1,.1-2.2.2-3.2a11.51,11.51,0,0,1,.8-2.9Z"/>
    </g>
    <use width="2.6" height="2.6" transform="translate(17.59 1.65) scale(0.9)" xlink:href="#a"/>
    <use width="2.6" height="2.6" transform="translate(25.71 17.09) rotate(-17.5) scale(0.9)" xlink:href="#a"/>
    <use width="2.6" height="2.6" transform="matrix(0.87, 0.23, -0.23, 0.87, 29.07, 8.31)" xlink:href="#a"/>
    <use width="2.6" height="2.6" transform="translate(14.67 4.86) rotate(14.52) scale(1.43)" xlink:href="#a"/>
    <use width="2.6" height="2.6" transform="translate(25.11 12.93) rotate(3.58) scale(0.9)" xlink:href="#a"/>
  </g>
</svg>
