<?xml version="1.0" encoding="utf-8"?>
<!-- Generator: Adobe Illustrator 21.0.2, SVG Export Plug-In . SVG Version: 6.00 Build 0)  -->
<svg version="1.1" id="Layer_2" xmlns="http://www.w3.org/2000/svg" xmlns:xlink="http://www.w3.org/1999/xlink" x="0px" y="0px"
	 viewBox="0 0 32 32" style="enable-background:new 0 0 32 32;" xml:space="preserve">
<style type="text/css">
	.st0{fill:#FCCB05;}
	.st1{fill:#FFE780;}
	.st2{fill:#E71A41;}
	.st3{fill:#EF6628;}
	.st4{fill:#624C9D;}
	.st5{fill:#9AC52E;}
</style>
<symbol  id="star" viewBox="-1.3 -1.3 2.6 2.6">
	<polygon class="st0" points="1.3,-0.5 0.3,-0.6 -0.5,-1.3 -0.6,-0.3 -1.3,0.5 -0.3,0.6 0.5,1.3 0.6,0.3 	"/>
</symbol>
<polygon class="st1" points="26.7,4.9 5.1,21.8 10.6,27.3 "/>
<g>
	<path class="st2" d="M8.2,27c-1.4-0.9-4.2-3.1-3.4-5.4c0.4-1,1.3-2.1,2.1-2.8c0.5-0.4,3-2.3,4-2.3c0,0-0.6,2.1-0.7,2.5
		c-0.2,0.6-0.2,1.4-0.2,2.1c0,1.3,0.3,2.3,1,3.4c0.3,0.4,1.1,1.2,1.1,1.7c0,0.4-0.7,1.1-1,1.3c-0.4,0.3-0.9,0.4-1.4,0.3
		C9.2,27.6,9,27.5,8.2,27z"/>
	<path class="st3" d="M15.2,20.4c0.4,1.5-0.2,2.4-1.3,3.5c-0.3,0.3-0.7,0.9-1.1,0.9c-0.4,0-0.9-0.9-1.1-1.2
		c-1.2-1.9-0.6-5.8,0.4-7.3c0.5-0.8,1-1.6,2-2.5c0.2-0.2,1.1-1.1,1.7-1.2c0,0-0.3,0.8-0.4,1.1C14.8,16,14.8,18.1,15.2,20.4z"/>
	<path class="st4" d="M24.1,7.9c0-0.6,0.1-1.5,0.6-2.1c0.4-0.4,1.6-1.3,2.1-1.2C28,5,24.7,9.2,24.2,9.6C24,9.1,24,8.5,24.1,7.9z"/>
	<path class="st0" d="M15.7,14.9c0.2-1.1,0.8-2.4,1.7-3.5c0.5-0.7,2.5-2.5,3-2.4c0,0-0.8,3.1-1,4.8c-0.1,1.6,0,2.8-1,4.3
		c-0.5,0.7-1,1.5-1.7,2c-0.5,0.4-0.6,0.6-0.9,0.1C15.2,18.6,15.5,16,15.7,14.9z"/>
	<path class="st5" d="M20.9,9c0.4-0.9,1.1-1.5,1.9-2.1c0.4-0.3,0.8-0.5,0.9-0.4c0,0-0.2,0.7-0.3,1.2c-0.2,1.8,0.4,3.2-0.6,4.9
		c-0.5,0.9-1.2,1.6-1.9,2.2c-0.8,0.7-0.9,0.6-0.9-0.4c0-0.9,0.1-1.9,0.2-2.8C20.4,10.8,20.5,9.8,20.9,9C20.9,9,20.9,9,20.9,9z"/>
</g>
<use xlink:href="#star"  width="2.6" height="2.6" x="-1.3" y="-1.3" transform="matrix(0.9007 0 0 -0.9007 17.3442 4.602)" style="overflow:visible;"/>
<use xlink:href="#star"  width="2.6" height="2.6" x="-1.3" y="-1.3" transform="matrix(1.4027 -0.4421 -0.4421 -1.4027 20.6382 4.7797)" style="overflow:visible;"/>
<use xlink:href="#star"  width="2.6" height="2.6" x="-1.3" y="-1.3" transform="matrix(0.8591 -0.2708 -0.2708 -0.8591 28.4071 11.554)" style="overflow:visible;"/>
<use xlink:href="#star"  width="2.6" height="2.6" x="-1.3" y="-1.3" transform="matrix(0.872 0.2259 0.2259 -0.872 27.9696 8.0573)" style="overflow:visible;"/>
<use xlink:href="#star"  width="2.6" height="2.6" id="XMLID_1_" x="-1.3" y="-1.3" transform="matrix(1.3831 0.3583 0.3583 -1.3831 25.242 15.076)" style="overflow:visible;"/>
<use xlink:href="#star"  width="2.6" height="2.6" x="-1.3" y="-1.3" transform="matrix(0.899 5.630424e-02 5.630424e-02 -0.899 16.3886 7.825)" style="overflow:visible;"/>
</svg>
