<?xml version="1.0" encoding="utf-8"?>
<!-- Generator: Adobe Illustrator 21.0.2, SVG Export Plug-In . SVG Version: 6.00 Build 0)  -->
<svg version="1.1" id="Layer_1" xmlns="http://www.w3.org/2000/svg" xmlns:xlink="http://www.w3.org/1999/xlink" x="0px" y="0px"
	 viewBox="0 0 32 32" style="enable-background:new 0 0 32 32;" xml:space="preserve">
<style type="text/css">
	.st0{fill:#8C8F99;}
	.st1{opacity:0.2;}
	.st2{fill:#D1D1D1;}
	.st3{display:none;}
	.st4{fill:none;stroke:#9F9FA0;stroke-width:0.75;stroke-linecap:round;stroke-miterlimit:10;}
</style>
<symbol  id="rain-drop" viewBox="-1.8 -2.9 3.4 7.6">
	<g>
		<path class="st0" d="M-1.8,4.7c0,0,0.2-0.5,0.6-2.6C-1,0.4-1.1-0.6-0.5-1.7C-0.1-2.6,0.6-3,1-2.8c0.6,0.2,0.6,1,0.5,1.9
			c-0.2,1-1.4,2.3-2,3.2C-1.2,3.6-1.8,4.7-1.8,4.7z"/>
	</g>
</symbol>
<g class="st1">
	<path class="st2" d="M27.3,14.9c0-0.3,0.1-0.6,0.1-0.8c0-3.4-2.8-6.2-6.2-6.2c-0.2,0-0.5,0-0.7,0c-0.7-1.3-2.2-1.7-2.7-1.8
		c0,0,0,0,0,0c-0.1,0-0.3-0.1-0.4-0.1c-0.1,0-0.1,0-0.2,0c-0.2,0-0.4,0-0.6,0C16.3,6,16,6,15.8,6c-0.1,0-0.2,0.1-0.3,0.1
		c-0.1,0-0.3,0.1-0.4,0.1c-0.1,0-0.3,0.1-0.4,0.2c-0.1,0-0.2,0.1-0.3,0.1c-0.2,0.1-0.3,0.2-0.4,0.3c-0.1,0-0.1,0.1-0.2,0.1
		c-0.2,0.1-0.3,0.2-0.5,0.4c0,0-0.1,0-0.1,0.1c-0.2,0.2-0.3,0.3-0.4,0.5c0,0,0,0,0,0c-0.1,0.2-0.3,0.4-0.4,0.6c0,0,0,0,0,0
		c-0.1,0.2-0.2,0.4-0.3,0.6c0,0,0,0,0,0c-0.7-0.6-1.5-0.9-2.4-0.9C8,8.1,6.7,9,6.1,10.3c-2.7,0-4.8,2.2-4.8,4.9c0,1.6,0.8,3,2,3.9
		c-0.1,0.4-0.2,0.9-0.2,1.3c0,2.3,1.9,4.2,4.2,4.2c0.8,0,1.5-0.2,2.1-0.6c0.5,0.6,1.7,1.3,2.6,1.4c1.2,0.2,2.1-0.2,2.8-0.9
		c1.4,1,2,1.5,4,1.5c2,0,3.8-1,4.9-2.5c0.7,0.4,1.4,0.6,2.3,0.6c2.6,0,4.7-2.1,4.7-4.7C30.7,17.3,29.2,15.4,27.3,14.9z"/>
</g>
<g class="st3">
	
		<use xlink:href="#rain-drop"  width="3.4" height="7.6" id="XMLID_1_" x="-1.8" y="-2.9" transform="matrix(1 0 0 -1 13.3078 26.3555)" style="display:inline;overflow:visible;"/>
	
		<use xlink:href="#rain-drop"  width="3.4" height="7.6" id="XMLID_2_" x="-1.8" y="-2.9" transform="matrix(1.2794 0 0 -1.2794 16.8703 24.293)" style="display:inline;overflow:visible;"/>
	
		<use xlink:href="#rain-drop"  width="3.4" height="7.6" id="XMLID_3_" x="-1.8" y="-2.9" transform="matrix(0.6834 0 0 -0.6834 22.8078 27.7513)" style="display:inline;overflow:visible;"/>
	
		<use xlink:href="#rain-drop"  width="3.4" height="7.6" id="XMLID_4_" x="-1.8" y="-2.9" transform="matrix(1 0 0 -1 26.9953 22.7513)" style="display:inline;overflow:visible;"/>
</g>
<g>
	<g>
		<path class="st2" d="M27.3,12.9c0-0.3,0.1-0.6,0.1-0.8c0-3.4-2.8-6.2-6.2-6.2c-0.2,0-0.5,0-0.7,0c-0.7-1.3-2.2-1.7-2.7-1.8
			c0,0,0,0,0,0c-0.1,0-0.3-0.1-0.4-0.1c-0.1,0-0.1,0-0.2,0c-0.2,0-0.4,0-0.6,0C16.3,4,16,4,15.8,4c-0.1,0-0.2,0.1-0.3,0.1
			c-0.1,0-0.3,0.1-0.4,0.1c-0.1,0-0.3,0.1-0.4,0.2c-0.1,0-0.2,0.1-0.3,0.1c-0.2,0.1-0.3,0.2-0.4,0.3c-0.1,0-0.1,0.1-0.2,0.1
			c-0.2,0.1-0.3,0.2-0.5,0.4c0,0-0.1,0-0.1,0.1c-0.2,0.2-0.3,0.3-0.4,0.5c0,0,0,0,0,0c-0.1,0.2-0.3,0.4-0.4,0.6c0,0,0,0,0,0
			c-0.1,0.2-0.2,0.4-0.3,0.6c0,0,0,0,0,0c-0.7-0.6-1.5-0.9-2.4-0.9C8,6.1,6.7,7,6.1,8.3c-2.7,0-4.8,2.2-4.8,4.9c0,1.6,0.8,3,2,3.9
			c-0.1,0.4-0.2,0.9-0.2,1.3c0,2.3,1.9,4.2,4.2,4.2c0.8,0,1.5-0.2,2.1-0.6c0.5,0.6,1.7,1.3,2.6,1.4c1.2,0.2,2.1-0.2,2.8-0.9
			c1.4,1,2,1.5,4,1.5c2,0,3.8-1,4.9-2.5c0.7,0.4,1.4,0.6,2.3,0.6c2.6,0,4.7-2.1,4.7-4.7C30.7,15.3,29.2,13.4,27.3,12.9z"/>
	</g>
	<g>
		<path class="st4" d="M10.7,19.8c-0.2,1.1-0.9,1.8-1.2,2.1"/>
		<path class="st4" d="M14.8,22.5c-0.8,0.8-2,1.1-3.2,0.9c-0.9-0.2-1.6-0.7-2.1-1.4"/>
		<path class="st4" d="M14.8,22.5c-0.3-0.3-0.5-0.6-0.8-0.9c-0.3-0.5-1.1-1.8-0.6-3.2c0.4-0.9,1.3-1.6,2.6-1.7
			c1-0.1,2.3,0.7,2.3,1.8c0,1.2-1.2,1.8-1.3,1.9"/>
		<path class="st4" d="M14.8,22.5c0.9,0.8,2,1.2,2.4,1.3c0.5,0.2,1.1,0.2,1.7,0.2c2,0,3.8-1,4.9-2.5c0.7,0.4,1.4,0.6,2.3,0.6
			c2.6,0,4.7-2.1,4.7-4.7c0-2-1.4-3.9-3.4-4.5c-0.7-0.2-1.3-0.2-1.8-0.1c-0.2,0-0.8,0.2-1.3,0.6c-0.9,0.7-1,1.5-0.8,2.5"/>
		<path class="st4" d="M27.3,12.9c0-0.3,0.1-0.6,0.1-0.8c0-3.4-2.8-6.2-6.2-6.2c-0.2,0-0.5,0-0.7,0"/>
		<path class="st4" d="M6.1,8.3C6.7,7,8,6.1,9.5,6.1c0.9,0,1.8,0.4,2.4,0.9C12.7,5.2,14.5,4,16.5,4C17,4,17.4,4,17.7,4.1
			c0.5,0.1,2,0.5,2.7,1.8c0.1,0.2,1,1.8,0.1,3.1c-0.5,0.7-2,1.5-3,1.2c-1.1-0.3-2-1.2-1.6-2.2c0.3-0.8,1.2-0.9,1.8-0.8"/>
		<path class="st4" d="M9.5,21.9C9.4,22,9.4,22,9.5,21.9c-0.7,0.5-1.4,0.7-2.2,0.7c-2.3,0-4.2-1.9-4.2-4.2c0-0.5,0.1-0.9,0.2-1.3
			c-1.2-0.9-2-2.3-2-3.9c0-2.7,2.2-4.9,4.8-4.9c1.4,0.1,2.3,0.8,2.5,2.1c0,0.2,0.3,1.3-0.3,2c-0.6,0.7-1.4,1.1-2.6,0.5"/>
	</g>
</g>
</svg>
