<svg xmlns="http://www.w3.org/2000/svg" xmlns:xlink="http://www.w3.org/1999/xlink" viewBox="0 0 32 32">
  <defs>
    <style>
      .a {
        fill: #8c8f99;
      }

      .b, .c {
        fill: #bcbcbc;
      }

      .b {
        opacity: 0.2;
      }

      .c, .d {
        stroke: #8c8f99;
        stroke-linecap: round;
        stroke-miterlimit: 10;
        stroke-width: 0.75px;
      }

      .d {
        fill: none;
      }
    </style>
    <symbol id="a" data-name="rain-drop" viewBox="0 0 3.33 7.45">
      <path class="a" d="M0,0S.6,2.29.75,3.47A12,12,0,0,0,1.3,6.4c.37.84,1,1.16,1.49,1s.64-.83.5-1.62S2.2,4,1.6,3,0,0,0,0Z"/>
    </symbol>
  </defs>
  <title>glyph-o</title>
  <g>
    <path class="b" d="M10.16,20.33a3.25,3.25,0,0,1-2,.7,4,4,0,0,1-3.9-3.9,4.3,4.3,0,0,1,.2-1.2,4.49,4.49,0,0,1-1.9-3.6,4.57,4.57,0,0,1,4.5-4.6,3.56,3.56,0,0,1,3.2-2,3.9,3.9,0,0,1,2.2.8,4.61,4.61,0,0,1,4.3-2.8,3.42,3.42,0,0,1,1.1.1,3.63,3.63,0,0,1,2.5,1.7h.7a5.8,5.8,0,0,1,5.8,5.8V12a4.38,4.38,0,0,1-1.2,8.6,3.7,3.7,0,0,1-2.1-.6,5.64,5.64,0,0,1-4.6,2.3,4.14,4.14,0,0,1-1.6-.2,8.11,8.11,0,0,1-2.3-1.3h0a3.48,3.48,0,0,1-3,.8,3.14,3.14,0,0,1-1.9-1.3Z"/>
    <g>
      <use width="3.33" height="7.45" transform="translate(18.8 22.33) scale(0.8)" xlink:href="#a"/>
      <use width="3.33" height="7.45" transform="translate(24.91 17.07) scale(1.06)" xlink:href="#a"/>
      <use width="3.33" height="7.45" transform="translate(11.57 17.08) scale(1.21)" xlink:href="#a"/>
    </g>
    <g>
      <path class="c" d="M9.51,18.25a3.25,3.25,0,0,1-2,.7,4,4,0,0,1-3.9-3.9,4.3,4.3,0,0,1,.2-1.2,4.49,4.49,0,0,1-1.9-3.6,4.57,4.57,0,0,1,4.5-4.6,3.56,3.56,0,0,1,3.2-2,3.9,3.9,0,0,1,2.2.8,4.61,4.61,0,0,1,4.3-2.8,4.1,4.1,0,0,1,1.1.1,3.63,3.63,0,0,1,2.5,1.7h.7a5.8,5.8,0,0,1,5.8,5.8V10a4.38,4.38,0,0,1-1.2,8.6,3.7,3.7,0,0,1-2.1-.6,5.64,5.64,0,0,1-4.6,2.3,6.19,6.19,0,0,1-1.6-.2,6.07,6.07,0,0,1-2.3-1.3h0a3.48,3.48,0,0,1-3,.8,3.14,3.14,0,0,1-1.9-1.3Z"/>
      <path class="d" d="M14.41,18.75a5.72,5.72,0,0,1-.7-.8,3.33,3.33,0,0,1-.5-2.9,2.19,2.19,0,0,1,2.3-1.5c1.11,0,2.05.5,2.1,1.6s-1.1,1.6-1.2,1.7"/>
      <path class="d" d="M26.21,10a3.29,3.29,0,0,0-2.8.2,1.86,1.86,0,0,0-.7,2.2"/>
      <path class="d" d="M19.71,3.45a2.79,2.79,0,0,1-.06,3,2.19,2.19,0,0,1-2.64,1,1.86,1.86,0,0,1-1.4-2c.12-.68.9-.8,1.5-.7"/>
      <path class="d" d="M6.41,5.65c1.68,0,2.48.95,2.57,1.83a3,3,0,0,1-.37,2,1.69,1.69,0,0,1-2.3.4"/>
    </g>
  </g>
</svg>
