<?xml version="1.0" encoding="utf-8"?>
<!-- Generator: Adobe Illustrator 21.0.2, SVG Export Plug-In . SVG Version: 6.00 Build 0)  -->
<svg version="1.1" baseProfile="basic" xmlns="http://www.w3.org/2000/svg" xmlns:xlink="http://www.w3.org/1999/xlink" x="0px"
	 y="0px" viewBox="0 0 100 100" xml:space="preserve">
<style type="text/css">
	.st0{fill:#EB7D83;stroke:#000000;stroke-width:0.2;stroke-linejoin:round;stroke-miterlimit:10;}
	.st1{fill:#FBF59C;stroke:#000000;stroke-width:0.2;stroke-linecap:round;stroke-linejoin:round;stroke-miterlimit:10;}
	.st2{fill:#FDD4DB;}
	.st3{display:none;opacity:0.69;}
	.st4{display:inline;fill:#FFFFFF;}
	.st5{display:inline;fill:url(#SVGID_1_);}
	.st6{filter:url(#Adobe_OpacityMaskFilter);}
	.st7{fill:url(#SVGID_3_);}
	.st8{mask:url(#SVGID_2_);}
	.st9{fill:#CDA3CD;}
	.st10{fill:#68CBEB;}
	.st11{fill:#65B4E4;}
	.st12{fill:#BED994;}
	.st13{fill:#FBF59C;}
	.st14{fill:#FFDD67;}
	.st15{fill:#EB7D83;}
</style>
<symbol  id="Heart" viewBox="-1.1 -1.1 2.3 2.2">
	<g id="layer1_17_">
		<path id="path2417_17_" class="st0" d="M-0.3-0.6c-0.3,0.2-0.3,0.2-0.4,0.3C-0.9-0.1-1,0.1-1,0.4c0,0.1,0,0.2,0,0.2
			c0.1,0.1,0.1,0.2,0.3,0.3c0.1,0,0.1,0.1,0.2,0.1c0.1,0,0.2,0,0.2-0.1C-0.1,0.8,0,0.7,0,0.6l0-0.1l0,0.1C0.2,1,0.8,1,1,0.6
			C1,0.5,1.1,0.2,1,0.1C0.9-0.1,0.8-0.3,0.5-0.5C0.3-0.7,0.1-0.8,0-1C-0.1-0.8-0.2-0.7-0.3-0.6z"/>
		<g id="g2221_17_" transform="translate(129.28571,-64.285714)">
		</g>
	</g>
</symbol>
<symbol  id="Sparkle" viewBox="-1 -1 2 2">
	<polygon points="0,1 0.2,0.2 1,0 0.2,-0.2 0,-1 -0.2,-0.2 -1,0 -0.2,0.2 	"/>
</symbol>
<symbol  id="Star" viewBox="-1.4 -1.3 2.7 2.6">
	<polygon class="st1" points="0,1.2 0.4,0.4 1.3,0.3 0.6,-0.3 0.8,-1.2 0,-0.8 -0.8,-1.2 -0.6,-0.3 -1.3,0.3 -0.4,0.4 	"/>
</symbol>
<g id="Layer_2">
	<rect x="-4.3" y="-3.5" class="st2" width="113.7" height="112.2"/>
</g>
<g id="Layer_1">
	<g class="st3">
		<polygon class="st4" points="51.6,3.8 51.1,41.2 65.3,6.5 53.3,42 77.5,13.4 55.2,43.5 87,23.7 56.4,45.4 92.8,36.5 57.1,47.6 
			94.4,50.4 57,50 91.6,64.1 56.2,52.2 84.8,76.3 54.7,54 74.4,85.8 52.8,55.3 61.7,91.6 50.5,55.9 47.8,93.2 48.2,55.8 34,90.5 
			46,55 21.8,83.6 44.2,53.5 12.4,73.3 42.9,51.6 6.5,60.5 42.3,49.4 4.9,46.6 42.4,47 7.7,32.9 43.2,44.8 14.6,20.7 44.6,43 
			24.9,11.2 46.6,41.7 37.6,5.4 48.8,41.1 		"/>
		
			<radialGradient id="SVGID_1_" cx="49.9496" cy="49.7734" r="30.9865" gradientTransform="matrix(0.9991 4.214349e-02 -4.214349e-02 0.9991 2.0881 -2.05)" gradientUnits="userSpaceOnUse">
			<stop  offset="0.2051" style="stop-color:#FFFFFF"/>
			<stop  offset="1" style="stop-color:#FFFFFF;stop-opacity:0"/>
		</radialGradient>
		<circle class="st5" cx="49.9" cy="49.8" r="31"/>
	</g>
	<defs>
		<filter id="Adobe_OpacityMaskFilter" filterUnits="userSpaceOnUse" x="13" y="13" width="74" height="74">
			<feColorMatrix  type="matrix" values="1 0 0 0 0  0 1 0 0 0  0 0 1 0 0  0 0 0 1 0"/>
		</filter>
	</defs>
	<mask maskUnits="userSpaceOnUse" x="13" y="13" width="74" height="74" id="SVGID_2_">
		<g class="st6">
			
				<linearGradient id="SVGID_3_" gradientUnits="userSpaceOnUse" x1="-14.3333" y1="82.3333" x2="65.6667" y2="82.3333" gradientTransform="matrix(0.1194 0.9928 -0.9928 0.1194 128.68 14.6869)">
				<stop  offset="0.4615" style="stop-color:#FFFFFF"/>
				<stop  offset="0.7949" style="stop-color:#000000;stop-opacity:0"/>
			</linearGradient>
			<polygon class="st7" points="15.1,94.5 5.5,15.1 84.9,5.5 94.5,84.9 			"/>
		</g>
	</mask>
	<g class="st8">
		<g>
			<path class="st9" d="M50,20c16.6,0,30,13.4,30,30S66.6,80,50,80S20,66.6,20,50S33.4,20,50,20 M50,13c-20.4,0-37,16.6-37,37
				s16.6,37,37,37s37-16.6,37-37S70.4,13,50,13L50,13z"/>
			<path class="st10" d="M50,20c16.6,0,30,13.4,30,30S66.6,80,50,80S20,66.6,20,50S33.4,20,50,20 M50,14c-19.9,0-36,16.1-36,36
				s16.1,36,36,36s36-16.1,36-36S69.9,14,50,14L50,14z"/>
			<path class="st11" d="M50,20c16.6,0,30,13.4,30,30S66.6,80,50,80S20,66.6,20,50S33.4,20,50,20 M50,15c-19.3,0-35,15.7-35,35
				s15.7,35,35,35s35-15.7,35-35S69.3,15,50,15L50,15z"/>
			<path class="st12" d="M50,20c16.6,0,30,13.4,30,30S66.6,80,50,80S20,66.6,20,50S33.4,20,50,20 M50,16c-18.7,0-34,15.3-34,34
				s15.3,34,34,34s34-15.3,34-34S68.7,16,50,16L50,16z"/>
			<path class="st13" d="M50,20c16.6,0,30,13.4,30,30S66.6,80,50,80S20,66.6,20,50S33.4,20,50,20 M50,17c-18.2,0-33,14.8-33,33
				s14.8,33,33,33s33-14.8,33-33S68.2,17,50,17L50,17z"/>
			<path class="st14" d="M50,20c16.6,0,30,13.4,30,30S66.6,80,50,80S20,66.6,20,50S33.4,20,50,20 M50,18c-17.6,0-32,14.4-32,32
				s14.4,32,32,32s32-14.4,32-32S67.6,18,50,18L50,18z"/>
			<path class="st15" d="M50,20c16.6,0,30,13.4,30,30S66.6,80,50,80S20,66.6,20,50S33.4,20,50,20 M50,19c-17.1,0-31,13.9-31,31
				s13.9,31,31,31s31-13.9,31-31S67.1,19,50,19L50,19z"/>
		</g>
	</g>
	<g>
		
			<use xlink:href="#Heart"  width="2.3" height="2.2" x="-1.1" y="-1.1" transform="matrix(0.9115 -0.4112 -0.4112 -0.9115 83.1811 48.5333)" style="overflow:visible;"/>
		
			<use xlink:href="#Star"  width="2.7" height="2.6" x="-1.4" y="-1.3" transform="matrix(1 0 0 -1 26.1234 51.5456)" style="overflow:visible;"/>
		
			<use xlink:href="#Star"  width="2.7" height="2.6" id="XMLID_1_" x="-1.4" y="-1.3" transform="matrix(1.0829 0.2371 0.2484 -1.1343 19.0283 49.3528)" style="overflow:visible;"/>
		
			<use xlink:href="#Star"  width="2.7" height="2.6" x="-1.4" y="-1.3" transform="matrix(0.9775 -0.5228 -0.5476 -1.0239 6.2083 53.625)" style="overflow:visible;"/>
		
			<use xlink:href="#Heart"  width="2.3" height="2.2" x="-1.1" y="-1.1" transform="matrix(0.9115 -0.4112 -0.4112 -0.9115 24.5191 56.1055)" style="overflow:visible;"/>
		
			<use xlink:href="#Star"  width="2.7" height="2.6" x="-1.4" y="-1.3" transform="matrix(-7.957278e-02 -0.9968 -0.9968 7.957278e-02 14.1867 63.6453)" style="overflow:visible;"/>
		
			<use xlink:href="#Heart"  width="2.3" height="2.2" id="XMLID_2_" x="-1.1" y="-1.1" transform="matrix(0.9777 0.2099 0.2099 -0.9777 16.3238 53.8483)" style="overflow:visible;"/>
		
			<use xlink:href="#Sparkle"  width="2" height="2" id="XMLID_3_" x="-1" y="-1" transform="matrix(1.2 0 0 -1.2 19.637 59.6963)" style="overflow:visible;"/>
		
			<use xlink:href="#Star"  width="2.7" height="2.6" x="-1.4" y="-1.3" transform="matrix(0.9357 -0.3527 -0.3527 -0.9357 87.5313 50.5176)" style="overflow:visible;"/>
		
			<use xlink:href="#Star"  width="2.7" height="2.6" x="-1.4" y="-1.3" transform="matrix(-0.5109 -0.8596 -0.8596 0.5109 88.5521 57.9019)" style="overflow:visible;"/>
		
			<use xlink:href="#Heart"  width="2.3" height="2.2" x="-1.1" y="-1.1" transform="matrix(0.8301 0.5576 0.5576 -0.8301 89.8998 43.377)" style="overflow:visible;"/>
		
			<use xlink:href="#Star"  width="2.7" height="2.6" x="-1.4" y="-1.3" transform="matrix(0.9357 -0.3527 -0.3527 -0.9357 90.7975 38.0378)" style="overflow:visible;"/>
		
			<use xlink:href="#Star"  width="2.7" height="2.6" x="-1.4" y="-1.3" transform="matrix(0.9818 0.1902 0.1902 -0.9818 82.2819 55.2333)" style="overflow:visible;"/>
		
			<use xlink:href="#Sparkle"  width="2" height="2" id="XMLID_4_" x="-1" y="-1" transform="matrix(1.2 0 0 -1.2 10.7204 57.238)" style="overflow:visible;"/>
		
			<use xlink:href="#Sparkle"  width="2" height="2" id="XMLID_5_" x="-1" y="-1" transform="matrix(1.2 0 0 -1.2 85.0016 43.988)" style="overflow:visible;"/>
		
			<use xlink:href="#Sparkle"  width="2" height="2" id="XMLID_6_" x="-1" y="-1" transform="matrix(1.2 0 0 -1.2 93.5242 48.1492)" style="overflow:visible;"/>
	</g>
</g>
</svg>
