<svg xmlns="http://www.w3.org/2000/svg" xmlns:xlink="http://www.w3.org/1999/xlink" viewBox="0 0 500 500">
  <defs>
    <style>
      .a {
        fill: url(#a);
      }

      .b, .n {
        fill: #eb7d83;
      }

      .b, .c {
        stroke: #000;
        stroke-linejoin: round;
        stroke-width: 0.2px;
      }

      .c, .l {
        fill: #fbf59c;
      }

      .c {
        stroke-linecap: round;
      }

      .d {
        fill: #fdd4db;
      }

      .e {
        fill: #fff;
        opacity: 0.3;
      }

      .f {
        fill: url(#b);
      }

      .g {
        mask: url(#c);
      }

      .h {
        fill: #cda3cd;
      }

      .i {
        fill: #68cbeb;
      }

      .j {
        fill: #65b4e4;
      }

      .k {
        fill: #bed994;
      }

      .m {
        fill: #ffdd67;
      }
    </style>
    <linearGradient id="a" x1="73.77" y1="-225.43" x2="473.77" y2="-225.43" gradientTransform="translate(-22.11 425.7)" gradientUnits="userSpaceOnUse">
      <stop offset="0.46" stop-color="#fff"/>
      <stop offset="0.79" stop-opacity="0"/>
    </linearGradient>
    <radialGradient id="b" cx="262.75" cy="239.85" r="145.52" gradientTransform="translate(489.85 -12.75) rotate(90)" gradientUnits="userSpaceOnUse">
      <stop offset="0.21" stop-color="#fff"/>
      <stop offset="0.33" stop-color="#fff" stop-opacity="0.87"/>
      <stop offset="0.61" stop-color="#fff" stop-opacity="0.52"/>
      <stop offset="1" stop-color="#fff" stop-opacity="0"/>
    </radialGradient>
    <mask id="c" x="35.18" y="-16.22" width="432.98" height="451.46" maskUnits="userSpaceOnUse">
      <rect class="a" x="51.67" y="0.27" width="400" height="400" transform="translate(429.5 -67.72) rotate(85.06)"/>
    </mask>
    <symbol id="d" data-name="Heart" viewBox="0 0 2.27 2.16">
      <path class="b" d="M.81,1.64A4.4,4.4,0,0,1,.39,1.3.79.79,0,0,1,.1.68a.48.48,0,0,1,0-.24A.57.57,0,0,1,.4.16.44.44,0,0,1,.65.1.38.38,0,0,1,.9.16a.5.5,0,0,1,.22.25V.46l0-.07a.53.53,0,0,1,1,0,.85.85,0,0,1,0,.55,1.29,1.29,0,0,1-.53.58,1.15,1.15,0,0,0-.46.53A.89.89,0,0,0,.81,1.64Z"/>
    </symbol>
    <symbol id="e" data-name="Star" viewBox="0 0 2.71 2.58">
      <polygon class="c" points="1.35 0.1 1.74 0.89 2.61 1.01 1.98 1.62 2.13 2.48 1.35 2.08 0.58 2.48 0.73 1.62 0.1 1.01 0.97 0.89 1.35 0.1"/>
    </symbol>
    <symbol id="k" data-name="Sparkle" viewBox="0 0 2 2">
      <polygon points="1 0 1.19 0.81 2 1 1.19 1.19 1 2 0.81 1.19 0 1 0.81 0.81 1 0"/>
    </symbol>
  </defs>
  <title>rainbow</title>
  <rect class="d" width="500" height="500"/>
  <polygon class="e" points="258.36 4.84 256.17 203.7 331.31 19.57 267.77 208.02 396.13 56.12 277.48 215.72 446.5 110.92 284.33 226.03 477.46 178.59 287.65 237.96 485.99 252.53 287.13 250.33 471.26 325.47 282.81 261.94 434.71 390.3 275.12 271.64 379.92 440.66 264.8 278.5 312.24 471.62 252.87 281.82 238.31 480.16 240.5 281.3 165.36 465.43 228.89 276.98 100.53 428.88 219.19 269.29 50.17 374.08 212.34 258.97 19.21 306.41 209.01 247.04 10.68 232.47 209.53 234.67 25.41 159.53 213.85 223.06 61.96 94.7 221.55 213.36 116.75 44.34 231.87 206.5 184.43 13.38 243.79 203.18 258.36 4.84"/>
  <circle class="f" cx="250" cy="250" r="145.52" transform="translate(-10.31 489.24) rotate(-87.58)"/>
  <g class="g">
    <g>
      <path class="h" d="M255,100.32A150,150,0,1,1,100.08,245.23,150,150,0,0,1,255,100.32m1.17-35c-102-3.41-187.67,76.77-191.08,178.72s76.77,187.67,178.72,191.08,187.67-76.77,191.08-178.72S358.13,68.75,256.17,65.34Z"/>
      <path class="i" d="M255,100.32A150,150,0,1,1,100.08,245.23,150,150,0,0,1,255,100.32m1-30C156.81,67,73.41,145,70.1,244.23S144.79,426.82,244,430.14s182.6-74.69,185.91-173.89S355.2,73.65,256,70.34Z"/>
      <path class="j" d="M255,100.32A150,150,0,1,1,100.08,245.23,150,150,0,0,1,255,100.32m.83-25C159.4,72.11,78.32,148,75.09,244.39s72.62,177.52,169.06,180.75S421.68,352.53,424.9,256.08,352.28,78.56,255.84,75.34Z"/>
      <path class="k" d="M255,100.32A150,150,0,1,1,100.08,245.23,150,150,0,0,1,255,100.32m.67-20C162,77.2,83.22,150.88,80.09,244.56S150.63,417,244.32,420.14,416.77,349.6,419.9,255.92,349.36,83.46,255.67,80.33Z"/>
      <path class="l" d="M255,100.32A150,150,0,1,1,100.08,245.23,150,150,0,0,1,255,100.32m.5-15c-90.93-3-167.38,68.47-170.42,159.4s68.47,167.38,159.4,170.42,167.38-68.47,170.42-159.4S346.44,88.37,255.51,85.33Z"/>
      <path class="m" d="M255,100.32A150,150,0,1,1,100.08,245.23,150,150,0,0,1,255,100.32m.33-10C167.16,87.38,93,156.72,90.09,244.9S156.48,407.2,244.65,410.15,407,343.76,409.91,255.58,343.52,93.28,255.34,90.33Z"/>
      <path class="n" d="M255,100.32A150,150,0,1,1,100.08,245.23,150,150,0,0,1,255,100.32m.17-5C169.75,92.47,97.94,159.64,95.08,245.06S159.4,402.3,244.82,405.15s157.24-64.32,160.09-149.74S340.59,98.18,255.17,95.33Z"/>
    </g>
  </g>
  <g>
    <use width="2.27" height="2.16" transform="translate(403.86 245.68) rotate(-22.37) scale(5)" xlink:href="#d"/>
    <use width="2.71" height="2.58" transform="translate(60.51 246.2) rotate(1.91) scale(5)" xlink:href="#e"/>
    <use width="2.71" height="2.58" transform="matrix(5.37, 1.37, -1.43, 5.63, 99.91, 233.05)" xlink:href="#e"/>
    <use width="2.71" height="2.58" transform="matrix(4.97, -2.45, 2.57, 5.21, 25.34, 262.79)" xlink:href="#e"/>
    <use width="2.27" height="2.16" transform="translate(16.55 230.22) rotate(-22.37) scale(5)" xlink:href="#d"/>
    <use width="2.71" height="2.58" transform="translate(62.61 319.5) rotate(-92.65) scale(5)" xlink:href="#e"/>
    <use width="2.27" height="2.16" transform="translate(81.81 257.65) rotate(14.03) scale(5)" xlink:href="#d"/>
    <use width="2" height="2" transform="translate(90.85 287.43) rotate(1.91) scale(6)" xlink:href="#k"/>
    <use width="2.71" height="2.58" transform="translate(423.98 254.98) rotate(-18.74) scale(5)" xlink:href="#e"/>
    <use width="2.71" height="2.58" transform="translate(428.94 304.87) rotate(-118.81) scale(5)" xlink:href="#e"/>
    <use width="2.27" height="2.16" transform="translate(449.07 211.32) rotate(35.8) scale(5)" xlink:href="#d"/>
    <use width="2.71" height="2.58" transform="translate(447.55 188.33) rotate(-18.74) scale(5)" xlink:href="#e"/>
    <use width="2.71" height="2.58" transform="matrix(4.87, 1.11, -1.11, 4.87, 390.46, 268.48)" xlink:href="#e"/>
    <use width="2" height="2" transform="translate(46.7 273.65) rotate(1.91) scale(6)" xlink:href="#k"/>
    <use width="2" height="2" transform="translate(419.95 224.84) rotate(1.91) scale(6)" xlink:href="#k"/>
    <use width="2" height="2" transform="translate(457.18 236.9) rotate(1.91) scale(6)" xlink:href="#k"/>
  </g>
</svg>
