<?xml version="1.0" encoding="utf-8"?>
<svg width="32" height="32" xmlns="http://www.w3.org/2000/svg" xmlns:xlink="http://www.w3.org/1999/xlink" x="0px" y="0px"
	 viewBox="0 0 32 32" xml:space="preserve" style="background-color:#ffe979">
	<path d="M9.8,26.7c-1.8-0.9-3.1-2.2-4.2-3.9c-1-1.7-1.5-3.8-1.5-6.3c0-2.4,0.5-4.5,1.4-6.4c1-1.9,2.3-3.4,4-4.4
		c1.7-1.1,3.7-1.6,6-1.6c2.3,0,4.4,0.5,6.2,1.6c1.9,1.1,3.3,2.6,4.4,4.5s1.6,4.1,1.6,6.5s-0.5,4.5-1.6,6.2c-1.1,1.7-2.5,3-4.4,3.9
		C20,27.6,18,28,15.7,28C13.6,28,11.6,27.6,9.8,26.7z M20.1,24c1.3-0.6,2.4-1.5,3.1-2.8c0.8-1.3,1.2-2.8,1.2-4.7
		c0-1.8-0.4-3.4-1.1-4.8c-0.7-1.4-1.8-2.5-3.1-3.3c-1.3-0.8-2.8-1.2-4.5-1.2c-1.6,0-3.1,0.4-4.3,1.2c-1.2,0.8-2.2,1.9-2.9,3.3
		s-1,3-1,4.8c0,2,0.4,3.6,1.2,4.9c0.8,1.3,1.8,2.2,3.1,2.8s2.6,0.9,4.1,0.9C17.4,24.9,18.8,24.6,20.1,24z"/>
</svg>
