<?xml version="1.0" encoding="utf-8"?>
<svg width="32" height="32"  xmlns="http://www.w3.org/2000/svg" xmlns:xlink="http://www.w3.org/1999/xlink" x="0px" y="0px"
	 viewBox="0 0 32 32" xml:space="preserve">
	<path d="M8.3,29.4c-2.2-1.1-3.9-2.7-5.2-4.9c-1.3-2.2-1.9-4.8-1.9-7.9c0-3,0.6-5.7,1.8-8C4.2,6.2,5.9,4.4,8,3c2.2-1.3,4.7-2,7.5-2
		c2.9,0,5.5,0.7,7.8,2.1c2.3,1.4,4.2,3.3,5.5,5.6c1.3,2.4,2,5.1,2,8.1s-0.7,5.6-2,7.7c-1.4,2.1-3.2,3.8-5.5,4.9
		C21,30.5,18.5,31,15.7,31C12.9,31,10.5,30.5,8.3,29.4z M21.1,26c1.6-0.8,2.9-1.9,3.9-3.5c1-1.6,1.5-3.5,1.5-5.9
		c0-2.3-0.5-4.3-1.4-6c-0.9-1.8-2.2-3.2-3.9-4.2c-1.6-1-3.5-1.5-5.6-1.5c-2.1,0-3.9,0.5-5.4,1.5c-1.6,1-2.8,2.3-3.6,4.1
		s-1.3,3.7-1.3,5.9c0,2.5,0.5,4.5,1.5,6.1c1,1.6,2.3,2.8,3.9,3.5s3.3,1.1,5.1,1.1C17.8,27.1,19.5,26.7,21.1,26z"/>
</svg>
