<?xml version="1.0" encoding="utf-8"?>
<svg fill="#fff" width="32" height="32" x="0px" y="0px" viewBox="0 0 32 32" xmlns="http://www.w3.org/2000/svg" xmlns:xlink="http://www.w3.org/1999/xlink" xml:space="preserve">
  <path d="M26.5,27.7c0.3,0.4,0.4,0.7,0.4,0.9c0,0.4-0.2,0.8-0.5,1.1s-0.8,0.5-1.2,0.5c-0.4,0-0.8-0.2-1.1-0.6l-8.2-11L8,29.2
    c-0.2,0.3-0.4,0.5-0.7,0.7C7,29.9,6.7,30,6.4,30c-0.4,0-0.8-0.1-1.1-0.4c-0.3-0.3-0.5-0.6-0.5-1c0-0.2,0-0.4,0.1-0.6
    c0.1-0.1,0.2-0.3,0.4-0.5L14,16L5.2,3.9C5,3.6,4.9,3.4,4.9,3.1c0-0.4,0.2-0.8,0.5-1.1c0.3-0.3,0.8-0.4,1.2-0.4
    c0.3,0,0.5,0.1,0.7,0.2C7.6,2,7.8,2.3,8.1,2.7L16,13.4c3.5-4.6,6.2-8.2,8.2-10.9c0.2-0.3,0.4-0.6,0.6-0.7c0.2-0.1,0.4-0.2,0.6-0.2
    c0.5,0,0.9,0.2,1.3,0.5c0.4,0.3,0.5,0.6,0.5,1c0,0.4-0.1,0.7-0.4,1.1L17.9,16L26.5,27.7z"/>
</svg>
