<?xml version="1.0" encoding="utf-8"?>
<svg fill="#fff" width="32" height="32" x="0px" y="0px" viewBox="0 0 32 32" xmlns="http://www.w3.org/2000/svg" xmlns:xlink="http://www.w3.org/1999/xlink" xml:space="preserve">
  <path d="M8.5,29.1c-2.2-1-3.9-2.6-5.2-4.8s-1.9-4.8-1.9-8c0-3,0.6-5.7,1.8-8s2.8-4.2,5-5.5c2.1-1.3,4.6-2,7.4-2
    c2.8,0,5.4,0.7,7.7,2c2.3,1.4,4.1,3.2,5.4,5.6s2,5.1,2,8.1c0,3-0.7,5.6-2,7.8c-1.4,2.1-3.2,3.7-5.4,4.8c-2.3,1.1-4.7,1.6-7.4,1.6
    C13.1,30.7,10.6,30.1,8.5,29.1z M21.4,26.5c1.7-0.8,3.2-2,4.3-3.7c1.1-1.7,1.7-3.8,1.7-6.3c0-2.4-0.5-4.5-1.5-6.4
    c-1-1.9-2.4-3.4-4.2-4.5c-1.8-1.1-3.8-1.6-6-1.6c-2.2,0-4.1,0.5-5.7,1.6C8.2,6.4,7,7.9,6,9.7c-0.9,1.9-1.4,4-1.4,6.4
    c0,2.7,0.6,4.9,1.7,6.6c1.1,1.7,2.5,3,4.2,3.7c1.7,0.8,3.5,1.1,5.4,1.1C17.8,27.6,19.6,27.2,21.4,26.5z"/>
</svg>
