<svg xmlns="http://www.w3.org/2000/svg" viewBox="0 0 32 32">
  <title>glyph-o</title>
  <path d="M9.86,27.24a10,10,0,0,1-4.36-4,12.73,12.73,0,0,1-1.66-6.77A15.24,15.24,0,0,1,5.31,9.74,10.94,10.94,0,0,1,15.55,3.41,12.35,12.35,0,0,1,21.92,5.1a12.21,12.21,0,0,1,4.55,4.72,13.88,13.88,0,0,1,1.67,6.84,11.83,11.83,0,0,1-1.75,6.62,10.6,10.6,0,0,1-4.57,3.94,14.55,14.55,0,0,1-6.07,1.28A13.77,13.77,0,0,1,9.86,27.24Zm10.93-1.62a9.06,9.06,0,0,0,3.89-3.31,10.09,10.09,0,0,0,1.53-5.76,12.2,12.2,0,0,0-1.37-5.81,10.26,10.26,0,0,0-3.76-4,10.14,10.14,0,0,0-5.38-1.46,9.59,9.59,0,0,0-5.13,1.39,9.42,9.42,0,0,0-3.51,3.91,12.78,12.78,0,0,0-1.26,5.8,10.66,10.66,0,0,0,1.55,6,8.79,8.79,0,0,0,3.85,3.29,11.82,11.82,0,0,0,9.59-.05Z"/>
</svg>
