<svg xmlns="http://www.w3.org/2000/svg" viewBox="0 0 32 32">
  <title>glyph-x</title>
  <path d="M25.36,27.32a1,1,0,0,1,.25.54.94.94,0,0,1-.32.7,1.07,1.07,0,0,1-.76.31.93.93,0,0,1-.76-.43L16,17.88l-7.7,10.3a1.23,1.23,0,0,1-1,.54,1,1,0,0,1-.94-.9.9.9,0,0,1,.07-.4,2,2,0,0,1,.25-.36q3.6-4.72,8.17-10.8Q9.2,8.7,6.68,5.17a1.07,1.07,0,0,1-.22-.58.85.85,0,0,1,.31-.67,1.13,1.13,0,0,1,.77-.27A.72.72,0,0,1,8,3.84a4.55,4.55,0,0,1,.54.58L16,14.64q5-6.59,7.67-10.22a2.55,2.55,0,0,1,.49-.54.7.7,0,0,1,.41-.14,1.15,1.15,0,0,1,.79.29.82.82,0,0,1,.32.61,1.41,1.41,0,0,1-.36.79q-5.26,7.06-8.14,10.84Z"/>
</svg>
